<svg xmlns="http://www.w3.org/2000/svg" xmlns:xlink="http://www.w3.org/1999/xlink" width="496.035" height="90.339" viewBox="0 0 496.035 90.339">
  <defs>
    <linearGradient id="linear-gradient" x1="0.502" y1="1.002" x2="0.502" y2="-0.002" gradientUnits="objectBoundingBox">
      <stop offset="0" stop-color="#ffe93d"/>
      <stop offset="1" stop-color="#f15a24"/>
    </linearGradient>
  </defs>
  <g id="Pando_Wallet_updated_logo" data-name="Pando Wallet updated logo" transform="translate(338.274 -5307)">
    <g id="Group_29615" data-name="Group 29615" transform="translate(-215.996 5336.134)">
      <path id="Path_78302" data-name="Path 78302" d="M6.835,1.558V12H2.074V-16.791h8.74a11.572,11.572,0,0,1,7.692,2.31,8.055,8.055,0,0,1,2.732,6.513,8.989,8.989,0,0,1-2.855,6.855,10.83,10.83,0,0,1-7.712,2.672Zm0-14.42V-2.338H9.92a6.84,6.84,0,0,0,4.687-1.428,5.09,5.09,0,0,0,1.608-4.017q0-5.081-5.9-5.081Z" transform="translate(-2.074 18.448)" fill="#fff" stroke="#fff" stroke-width="0.2"/>
      <path id="Path_78301" data-name="Path 78301" d="M18.191,8.768H13.674V5.554H13.6A6.8,6.8,0,0,1,7.346,9.249,6.579,6.579,0,0,1,2.6,7.6,5.76,5.76,0,0,1,.883,3.244q0-5.827,6.708-6.788L13.7-4.4q0-4.4-4.177-4.4A9.923,9.923,0,0,0,2.888-6.275v-4.077A14.453,14.453,0,0,1,10.4-12.28q7.793,0,7.793,7.673Zm-4.5-10.1-4.319.6A6.845,6.845,0,0,0,6.35.241a2.847,2.847,0,0,0-1.013,2.5,2.742,2.742,0,0,0,.934,2.139,3.616,3.616,0,0,0,2.5.833,4.614,4.614,0,0,0,3.525-1.5,5.313,5.313,0,0,0,1.4-3.77Z" transform="translate(22.779 21.682)" fill="#fff" stroke="#fff" stroke-width="0.2"/>
      <path id="Path_78300" data-name="Path 78300" d="M20.086,8.771h-4.66V-2.817q0-5.764-4.077-5.764a4.456,4.456,0,0,0-3.515,1.6A5.923,5.923,0,0,0,6.449-2.958V8.771H1.77V-11.794H6.449V-8.38h.081a7.33,7.33,0,0,1,6.668-3.9A6.209,6.209,0,0,1,18.319-10.1a9.784,9.784,0,0,1,1.767,6.3Z" transform="translate(47.41 21.678)" fill="#fff" stroke="#fff" stroke-width="0.2"/>
      <path id="Path_78299" data-name="Path 78299" d="M21.025,12.682h-4.66V9.188h-.081a7.433,7.433,0,0,1-6.929,3.976A7.479,7.479,0,0,1,3.28,10.4,11.464,11.464,0,0,1,1.008,2.881,12.489,12.489,0,0,1,3.529-5.294a8.249,8.249,0,0,1,6.718-3.073,6.434,6.434,0,0,1,6.045,3.333h.081V-17.767h4.653Zm-4.593-9.4V.593a5.243,5.243,0,0,0-1.426-3.716,4.756,4.756,0,0,0-3.635-1.527A4.895,4.895,0,0,0,7.258-2.7a8.681,8.681,0,0,0-1.5,5.4A7.779,7.779,0,0,0,7.2,7.652a4.67,4.67,0,0,0,3.865,1.817,4.835,4.835,0,0,0,3.877-1.757,6.62,6.62,0,0,0,1.493-4.429Z" transform="translate(72.56 17.767)" fill="#fff" stroke="#fff" stroke-width="0.2"/>
      <path id="Path_78298" data-name="Path 78298" d="M11.445,9.256a10.194,10.194,0,0,1-7.6-2.881A10.411,10.411,0,0,1,1.008-1.267,10.833,10.833,0,0,1,3.971-9.361a10.893,10.893,0,0,1,7.983-2.913,9.866,9.866,0,0,1,7.512,2.831,10.939,10.939,0,0,1,2.691,7.853,10.778,10.778,0,0,1-2.9,7.884A10.425,10.425,0,0,1,11.445,9.256Zm.221-17.815A5.313,5.313,0,0,0,7.349-6.65,7.988,7.988,0,0,0,5.762-1.389,7.524,7.524,0,0,0,7.369,3.7a5.4,5.4,0,0,0,4.3,1.858,5.121,5.121,0,0,0,4.228-1.827,8.089,8.089,0,0,0,1.476-5.2A8.213,8.213,0,0,0,15.894-6.71a5.1,5.1,0,0,0-4.228-1.847Z" transform="translate(98.267 21.675)" fill="#fff" stroke="#fff" stroke-width="0.2"/>
      <path id="Path_78297" data-name="Path 78297" d="M13.525,10.879a8.076,8.076,0,0,1-3.6.684q-5.985,0-5.985-5.745V-5.81H.5V-9.466H3.928v-4.759l4.66-1.325v6.084h4.938V-5.81H8.6V4.473a4.051,4.051,0,0,0,.663,2.61,2.751,2.751,0,0,0,2.2.783,3.2,3.2,0,0,0,2.057-.686Z" transform="translate(123.625 19.35)" fill="#fff" stroke="#fff" stroke-width="0.2"/>
      <path id="Path_78293" data-name="Path 78293" d="M11.445,9.256a10.194,10.194,0,0,1-7.6-2.881A10.411,10.411,0,0,1,1.008-1.267,10.833,10.833,0,0,1,3.971-9.361a10.893,10.893,0,0,1,7.983-2.913,9.866,9.866,0,0,1,7.512,2.831,10.939,10.939,0,0,1,2.691,7.853,10.778,10.778,0,0,1-2.9,7.884A10.425,10.425,0,0,1,11.445,9.256Zm.221-17.815A5.313,5.313,0,0,0,7.349-6.65,7.988,7.988,0,0,0,5.762-1.389,7.524,7.524,0,0,0,7.369,3.7a5.4,5.4,0,0,0,4.3,1.858,5.121,5.121,0,0,0,4.228-1.827,8.089,8.089,0,0,0,1.476-5.2A8.213,8.213,0,0,0,15.894-6.71a5.1,5.1,0,0,0-4.228-1.847Z" transform="translate(141.113 21.675)" fill="#fff" stroke="#fff" stroke-width="0.2"/>
      <path id="Path_78294" data-name="Path 78294" d="M20.427,12.682h-5.9L6.529,2.8H6.449v9.882H1.77V-17.766H6.449V1.542h.081L14.08-7.884h5.6l-8.5,9.921Z" transform="translate(167.377 17.768)" fill="#fff" stroke="#fff" stroke-width="0.2"/>
      <path id="Path_78295" data-name="Path 78295" d="M19.741-.246H5.722A5.926,5.926,0,0,0,7.479,4.145a6.538,6.538,0,0,0,4.608,1.542A10.165,10.165,0,0,0,18.132,3.72V7.487A13.812,13.812,0,0,1,10.7,9.253a9.2,9.2,0,0,1-7.123-2.8A11.207,11.207,0,0,1,1.009-1.43,10.958,10.958,0,0,1,3.851-9.252a9.3,9.3,0,0,1,7.059-3.023,8.106,8.106,0,0,1,6.521,2.71,11.256,11.256,0,0,1,2.31,7.541ZM15.234-3.54A6,6,0,0,0,14.05-7.446a3.959,3.959,0,0,0-3.213-1.4,4.521,4.521,0,0,0-3.4,1.465A6.7,6.7,0,0,0,5.719-3.54Z" transform="translate(190.811 21.678)" fill="#fff" stroke="#fff" stroke-width="0.2"/>
      <path id="Path_78296" data-name="Path 78296" d="M20.086,8.771h-4.66V-2.817q0-5.764-4.077-5.764a4.456,4.456,0,0,0-3.515,1.6A5.923,5.923,0,0,0,6.449-2.958V8.771H1.77V-11.794H6.449V-8.38h.081a7.33,7.33,0,0,1,6.668-3.9A6.209,6.209,0,0,1,18.319-10.1a9.784,9.784,0,0,1,1.767,6.3Z" transform="translate(215.364 21.678)" fill="#fff" stroke="#fff" stroke-width="0.2"/>
      <path id="Path_78289" data-name="Path 78289" d="M39.1-16.8,31.206,11.992H25.8L20.32-8.152a13.771,13.771,0,0,1-.422-2.812h-.081a13.644,13.644,0,0,1-.482,2.771l-5.5,20.185H8.311L.258-16.8H5.5L10.721,4.28a15.359,15.359,0,0,1,.406,2.771h.1a15.724,15.724,0,0,1,.557-2.771L17.691-16.8H22.61L28.073,4.451a16.594,16.594,0,0,1,.422,2.571h.081a15.782,15.782,0,0,1,.463-2.651L34.159-16.8Z" transform="translate(246.847 18.457)" fill="#0ad2f5" stroke="#0ad2f5" stroke-width="0.2"/>
      <path id="Path_78290" data-name="Path 78290" d="M18.191,8.768H13.674V5.554H13.6A6.8,6.8,0,0,1,7.346,9.249,6.579,6.579,0,0,1,2.6,7.6,5.76,5.76,0,0,1,.883,3.244q0-5.827,6.708-6.788L13.7-4.4q0-4.4-4.177-4.4A9.923,9.923,0,0,0,2.888-6.275v-4.077A14.453,14.453,0,0,1,10.4-12.28q7.793,0,7.793,7.673Zm-4.5-10.1-4.319.6A6.845,6.845,0,0,0,6.35.241a2.847,2.847,0,0,0-1.013,2.5,2.742,2.742,0,0,0,.934,2.139,3.616,3.616,0,0,0,2.5.833,4.614,4.614,0,0,0,3.525-1.5,5.313,5.313,0,0,0,1.4-3.77Z" transform="translate(288.421 21.682)" fill="#0ad2f5" stroke="#0ad2f5" stroke-width="0.2"/>
      <path id="Path_78291" data-name="Path 78291" d="M6.449,12.682H1.77V-17.766H6.449Z" transform="translate(313.052 17.768)" fill="#0ad2f5" stroke="#0ad2f5" stroke-width="0.2"/>
      <path id="Path_78292" data-name="Path 78292" d="M6.449,12.682H1.77V-17.766H6.449Z" transform="translate(325.048 17.768)" fill="#0ad2f5" stroke="#0ad2f5" stroke-width="0.2"/>
      <path id="Path_78288" data-name="Path 78288" d="M19.741-.246H5.722A5.926,5.926,0,0,0,7.479,4.145a6.538,6.538,0,0,0,4.608,1.542A10.165,10.165,0,0,0,18.132,3.72V7.487A13.812,13.812,0,0,1,10.7,9.253a9.2,9.2,0,0,1-7.123-2.8A11.207,11.207,0,0,1,1.009-1.43,10.958,10.958,0,0,1,3.851-9.252a9.3,9.3,0,0,1,7.059-3.023,8.106,8.106,0,0,1,6.521,2.71,11.256,11.256,0,0,1,2.31,7.541ZM15.234-3.54A6,6,0,0,0,14.05-7.446a3.959,3.959,0,0,0-3.213-1.4,4.521,4.521,0,0,0-3.4,1.465A6.7,6.7,0,0,0,5.719-3.54Z" transform="translate(336.486 21.678)" fill="#0ad2f5" stroke="#0ad2f5" stroke-width="0.2"/>
      <path id="Path_78287" data-name="Path 78287" d="M13.525,10.879a8.076,8.076,0,0,1-3.6.684q-5.985,0-5.985-5.745V-5.81H.5V-9.466H3.928v-4.759l4.66-1.325v6.084h4.938V-5.81H8.6V4.473a4.051,4.051,0,0,0,.663,2.61,2.751,2.751,0,0,0,2.2.783,3.2,3.2,0,0,0,2.057-.686Z" transform="translate(360.132 19.35)" fill="#0ad2f5" stroke="#0ad2f5" stroke-width="0.2"/>
    </g>
    <g id="Group_33297" data-name="Group 33297" transform="translate(-338.274 5307)">
      <g id="Group_33290" data-name="Group 33290" transform="translate(0 0)">
        <g id="Group_29212" data-name="Group 29212" transform="translate(0 0)">
          <path id="Polygon_9" data-name="Polygon 9" d="M75.384,0A6,6,0,0,1,80.57,2.983l22.788,39.169a6,6,0,0,1,0,6.034L80.57,87.356a6,6,0,0,1-5.186,2.983H29.729a6,6,0,0,1-5.186-2.983L1.755,48.186a6,6,0,0,1,0-6.034L24.543,2.983A6,6,0,0,1,29.729,0Z" transform="translate(0)" fill="url(#linear-gradient)"/>
        </g>
        <path id="Path_86115" data-name="Path 86115" d="M1.579,1.745l2.509-.8a1.017,1.017,0,0,0,.44-.269A.76.76,0,0,0,4.707.132V-17.593a.706.706,0,0,0-.179-.521,1.056,1.056,0,0,0-.44-.261l-2.509-.831v-1.189h9.416a15.187,15.187,0,0,1,3.38.358,8.48,8.48,0,0,1,2.753,1.124,5.493,5.493,0,0,1,1.849,1.971,5.863,5.863,0,0,1,.668,2.883,8.344,8.344,0,0,1-.586,3.2,6.887,6.887,0,0,1-1.637,2.419,7.183,7.183,0,0,1-2.492,1.523,9.128,9.128,0,0,1-3.169.529,4.8,4.8,0,0,1-.872-.09,8.171,8.171,0,0,1-.969-.244,10.226,10.226,0,0,1-.961-.358,5.9,5.9,0,0,1-.831-.432V.132a.739.739,0,0,0,.187.546,1.078,1.078,0,0,0,.448.269l2.655.8V2.966H1.579ZM8.128-8.779q.277.065.668.122t.815.09q.424.033.863.049T11.3-8.5a5.343,5.343,0,0,0,1.768-.261,4.182,4.182,0,0,0,1.263-.684,3.591,3.591,0,0,0,.839-.961,5.313,5.313,0,0,0,.489-1.067,5.361,5.361,0,0,0,.228-1,6.843,6.843,0,0,0,.057-.8,7.447,7.447,0,0,0-.253-1.947,4.046,4.046,0,0,0-.888-1.654,4.36,4.36,0,0,0-1.735-1.14,7.8,7.8,0,0,0-2.778-.424H8.128ZM29.306,1.745l2.688-.8a.958.958,0,0,0,.464-.269.783.783,0,0,0,.171-.546V-18.44H27.253a.7.7,0,0,0-.464.155.722.722,0,0,0-.236.464l-.652,3.5H23.995v-6.076H44.684v6.076H42.778l-.652-3.5a.7.7,0,0,0-.244-.464.69.69,0,0,0-.44-.155H36.05V.132a.721.721,0,0,0,.2.546,1.161,1.161,0,0,0,.44.269l2.688.8V2.966H29.306Zm18.848,0,1.955-.652a1.727,1.727,0,0,0,.57-.383,4.975,4.975,0,0,0,.489-.546l6.467-8.6-6.272-9.221q-.1-.13-.212-.261a2.6,2.6,0,0,0-.244-.244q-.13-.114-.261-.212a.973.973,0,0,0-.277-.147l-1.922-.684v-1.189H57.2v1.189l-2.183.961,3.926,5.718,1.01,1.922h.1l5.343-7.559-2.1-1.043v-1.189h7.217v1.189l-1.808.684a1.547,1.547,0,0,0-.529.342,4.464,4.464,0,0,0-.513.554L61.415-9.252,67.866.2a4.1,4.1,0,0,0,.472.546,1.341,1.341,0,0,0,.521.334l1.89.668V2.966H62.018V1.745L64.217.8l-4.073-6L59.118-7.069h-.1L53.432.735l2.1,1.01V2.966h-7.38Z" transform="translate(16.111 53.674)" fill="#fff" stroke="#fff" stroke-width="0.8"/>
      </g>
    </g>
  </g>
</svg>
